<svg xmlns="http://www.w3.org/2000/svg">
    <symbol id="logo" viewBox="0 0 32 30" fill="none">
        <path d="M31.1718 3.20422C21.8451 -0.11135 11.7076 -0.3852 2.21558 2.42202C1.83828 2.5123 1.48304 2.67769 1.17108 2.90831C0.859111 3.13893 0.596816 3.43004 0.39985 3.76427C0.202884 4.09851 0.0752869 4.469 0.0246769 4.85363C-0.0259332 5.23827 0.00148172 5.62916 0.105285 6.00297C0.624801 8.08787 1.38259 10.4833 2.29272 12.6551C2.30835 12.7059 2.33276 12.6815 2.33276 12.6307C2.20093 11.6122 2.98411 10.3261 4.5202 9.85832C11.9023 7.50895 19.8468 7.61413 27.1641 10.1581C27.434 10.2504 27.7196 10.2878 28.0042 10.2679C28.2887 10.2481 28.5664 10.1715 28.8209 10.0426C29.0754 9.91372 29.3015 9.7352 29.4859 9.51755C29.6702 9.29991 29.8092 9.04754 29.8945 8.77535C30.8046 5.84575 31.1718 3.85654 31.2626 3.35851C31.2782 3.26574 31.1962 3.23059 31.1718 3.2052V3.20422ZM8.66949 9.64935C7.55136 9.88274 6.0055 10.2499 4.84538 10.6347C2.52611 11.4344 2.63353 14.2566 3.86885 15.157C3.95967 14.6336 4.5202 13.9217 5.14518 13.6815C7.46054 12.7713 9.9468 12.2274 12.4604 12.0028C11.1831 11.4843 9.93703 10.7411 8.68609 9.64837L8.66949 9.64935ZM27.1328 15.2996C23.8008 13.734 20.1887 12.8523 16.5101 12.7065C12.8315 12.5608 9.16094 13.1539 5.71547 14.451C4.61101 14.8679 3.91963 16.2117 4.61101 17.487C5.81883 19.6707 7.18954 21.7602 8.71148 23.7378C8.49274 22.98 8.87945 21.5767 10.3638 21.1178C14.4691 19.8561 18.7766 20.3912 21.6398 21.5504C22.4484 21.8756 23.5929 21.6783 24.2345 20.7174C25.3286 19.0319 26.3237 17.2842 27.2148 15.4832C27.2549 15.4021 27.2149 15.3416 27.1328 15.2996ZM20.4807 25.4165C19.2797 24.81 18.1814 24.0189 17.2259 23.0718C16.7835 22.6294 16.1322 21.9937 15.4457 21.2359C13.8783 21.2359 12.3569 21.3931 10.73 21.9127C9.21928 22.3853 9.07768 24.1304 9.73879 25.0405C10.8569 26.434 11.6411 27.1859 12.892 28.4789C13.555 29.1291 14.4452 29.4954 15.3738 29.5C16.3024 29.5045 17.1962 29.147 17.8655 28.5033C18.842 27.5268 19.4426 26.8754 20.5461 25.6245C20.6115 25.5581 20.5861 25.4419 20.4797 25.4165H20.4807Z" fill="currentcolor"/>
    </symbol>
    <symbol id="shape" viewBox="0 0 190 32" fill="none">
        <path d="M0 30.5927C48 -11.8073 146.667 -1.07395 190 9.59272C176.4 33.5928 57.6667 33.5927 0 30.5927Z" fill="currentcolor"/>
    </symbol>
    <symbol id="arrow-right" viewBox="0 0 34 24" fill="none">
        <path d="M33.0607 13.0607C33.6464 12.4749 33.6464 11.5251 33.0607 10.9393L23.5147 1.3934C22.9289 0.807611 21.9792 0.807611 21.3934 1.3934C20.8076 1.97919 20.8076 2.92893 21.3934 3.51472L29.8787 12L21.3934 20.4853C20.8076 21.0711 20.8076 22.0208 21.3934 22.6066C21.9792 23.1924 22.9289 23.1924 23.5147 22.6066L33.0607 13.0607ZM0 13.5L32 13.5V10.5L0 10.5L0 13.5Z" fill="#797979"/>
    </symbol>
    <symbol id="star" viewBox="0 0 72 72" fill="none">
        <path d="M20.6329 0.254759L40.1993 19.7805L64.8545 7.24422L52.2921 31.8481L71.8585 51.3739L44.528 47.0542L31.9656 71.6581L27.6369 44.3845L0.306418 40.0647L24.9616 27.5284L20.6329 0.254759Z" fill="white" fill-opacity="0.5"/>
    </symbol>
    <symbol id="ln" viewBox="0 0 19 19" fill="none">
        <path d="M3.875 18.396H0.476562V5.71631H3.875V18.396ZM0.277344 2.43506C0.277344 1.92725 0.445312 1.50928 0.78125 1.18115C1.125 0.853027 1.58984 0.688965 2.17578 0.688965C2.75391 0.688965 3.21484 0.853027 3.55859 1.18115C3.90234 1.50928 4.07422 1.92725 4.07422 2.43506C4.07422 2.95068 3.89844 3.37256 3.54688 3.70068C3.20312 4.02881 2.74609 4.19287 2.17578 4.19287C1.60547 4.19287 1.14453 4.02881 0.792969 3.70068C0.449219 3.37256 0.277344 2.95068 0.277344 2.43506ZM10.273 5.71631L10.3784 7.18115C11.2847 6.04834 12.4995 5.48193 14.023 5.48193C15.3667 5.48193 16.3667 5.87646 17.023 6.66553C17.6792 7.45459 18.0152 8.63428 18.0308 10.2046V18.396H14.6441V10.2866C14.6441 9.56787 14.4878 9.04834 14.1753 8.72803C13.8628 8.3999 13.3433 8.23584 12.6167 8.23584C11.6636 8.23584 10.9488 8.64209 10.4722 9.45459V18.396H7.08547V5.71631H10.273Z" fill="currentcolor"/>
    </symbol>
    <symbol id="fb" viewBox="0 0 14 26" fill="none">
        <path d="M12.5122 14.4585L13.2065 9.93408H8.86523V6.99805C8.86523 5.76025 9.47168 4.55371 11.416 4.55371H13.3896V0.70166C13.3896 0.70166 11.5986 0.395996 9.88623 0.395996C6.31104 0.395996 3.97412 2.56299 3.97412 6.48584V9.93408H0V14.4585H3.97412V25.396H8.86523V14.4585H12.5122Z" fill="currentcolor"/>
    </symbol>
    <symbol id="ig" viewBox="0 0 22 23" fill="none">
        <path d="M10.946 5.72681C7.84058 5.72681 5.33569 8.23169 5.33569 11.3372C5.33569 14.4426 7.84058 16.9475 10.946 16.9475C14.0515 16.9475 16.5564 14.4426 16.5564 11.3372C16.5564 8.23169 14.0515 5.72681 10.946 5.72681ZM10.946 14.9846C8.93921 14.9846 7.29858 13.3489 7.29858 11.3372C7.29858 9.32544 8.93433 7.6897 10.946 7.6897C12.9578 7.6897 14.5935 9.32544 14.5935 11.3372C14.5935 13.3489 12.9529 14.9846 10.946 14.9846ZM18.0945 5.49731C18.0945 6.22485 17.5085 6.80591 16.7859 6.80591C16.0584 6.80591 15.4773 6.21997 15.4773 5.49731C15.4773 4.77466 16.0632 4.18872 16.7859 4.18872C17.5085 4.18872 18.0945 4.77466 18.0945 5.49731ZM21.8103 6.82544C21.7273 5.07251 21.3269 3.51978 20.0427 2.24048C18.7634 0.961182 17.2107 0.560791 15.4578 0.4729C13.6511 0.370361 8.23608 0.370361 6.42944 0.4729C4.6814 0.555908 3.12866 0.956299 1.84448 2.2356C0.560303 3.51489 0.164795 5.06763 0.0769043 6.82056C-0.0256348 8.6272 -0.0256348 14.0422 0.0769043 15.8489C0.159912 17.6018 0.560303 19.1545 1.84448 20.4338C3.12866 21.7131 4.67651 22.1135 6.42944 22.2014C8.23608 22.304 13.6511 22.304 15.4578 22.2014C17.2107 22.1184 18.7634 21.718 20.0427 20.4338C21.322 19.1545 21.7224 17.6018 21.8103 15.8489C21.9128 14.0422 21.9128 8.63208 21.8103 6.82544ZM19.4763 17.7874C19.0955 18.7444 18.3582 19.4817 17.3962 19.8674C15.9558 20.4387 12.5378 20.3069 10.946 20.3069C9.35425 20.3069 5.9314 20.4338 4.49585 19.8674C3.53882 19.4866 2.80151 18.7493 2.41577 17.7874C1.84448 16.3469 1.97632 12.929 1.97632 11.3372C1.97632 9.74536 1.84937 6.32251 2.41577 4.88696C2.79663 3.92993 3.53394 3.19263 4.49585 2.80688C5.93628 2.2356 9.35425 2.36743 10.946 2.36743C12.5378 2.36743 15.9607 2.24048 17.3962 2.80688C18.3533 3.18774 19.0906 3.92505 19.4763 4.88696C20.0476 6.32739 19.9158 9.74536 19.9158 11.3372C19.9158 12.929 20.0476 16.3518 19.4763 17.7874Z" fill="currentcolor"/>
    </symbol>
    <symbol id="tw" viewBox="0 0 25 21" fill="none">
        <path d="M22.4302 5.45625C22.446 5.67832 22.446 5.90044 22.446 6.12251C22.446 12.8959 17.2906 20.7005 7.86802 20.7005C4.96509 20.7005 2.26841 19.8598 0 18.4004C0.412451 18.448 0.808984 18.4639 1.2373 18.4639C3.63257 18.4639 5.83755 17.6549 7.59834 16.2748C5.3458 16.2272 3.45811 14.752 2.80771 12.7215C3.125 12.769 3.44224 12.8008 3.77539 12.8008C4.2354 12.8008 4.69546 12.7373 5.12373 12.6263C2.77603 12.1504 1.01519 10.0882 1.01519 7.59775V7.53433C1.69727 7.91504 2.49048 8.15298 3.33115 8.18467C1.95107 7.2646 1.04692 5.69419 1.04692 3.91753C1.04692 2.96577 1.30068 2.09331 1.74487 1.33188C4.26709 4.44102 8.05835 6.47144 12.3096 6.69355C12.2303 6.31284 12.1827 5.91631 12.1827 5.51973C12.1827 2.69609 14.4669 0.395996 17.3064 0.395996C18.7816 0.395996 20.1141 1.01465 21.05 2.01401C22.208 1.79194 23.3184 1.36362 24.302 0.776709C23.9212 1.96646 23.1122 2.96582 22.0494 3.60029C23.0805 3.48931 24.0799 3.20371 24.9999 2.80718C24.302 3.82236 23.4295 4.72651 22.4302 5.45625Z" fill="currentcolor"/>
    </symbol>
    <svg id="circle" viewBox="0 0 600 600" fill="none">
        <ellipse rx="300" ry="300" transform="matrix(.99 0 0 0.99 300 300)" stroke="currentcolor" stroke-width="2.5"/>
    </svg>
    <symbol id="star2" width="56" height="51" viewBox="0 0 56 51" fill="none" xmlns="http://www.w3.org/2000/svg">
        <path d="M28 0L34.5109 19.3554H55.5806L38.5349 31.3177L45.0458 50.673L28 38.7108L10.9542 50.673L17.4651 31.3177L0.419361 19.3554H21.4891L28 0Z" fill="currentcolor"/>
    </symbol>
</svg>